<?xml version="1.0"?>
<svg xmlns="http://www.w3.org/2000/svg" xmlns:xlink="http://www.w3.org/1999/xlink" xmlns:svgjs="http://svgjs.com/svgjs" version="1.1" width="512" height="512" x="0" y="0" viewBox="0 0 512 512" style="enable-background:new 0 0 512 512" xml:space="preserve" class=""><g>
<path xmlns="http://www.w3.org/2000/svg" style="" d="M376.5,361.5v-211c8.283,0,15-6.716,15-15c0-8.283-6.717-15-15-15h-241C60.785,120.5,0,181.285,0,256  s60.785,135.5,135.5,135.5h241c8.283,0,15-6.716,15-15C391.5,368.217,384.783,361.5,376.5,361.5z" fill="#bc6fe8" data-original="#13c37b" class=""/>
<path xmlns="http://www.w3.org/2000/svg" style="" d="M135.5,120.5h241c8.284,0,15,6.717,15,15c0,8.284-6.716,15-15,15v105.499H0  C0,181.285,60.785,120.5,135.5,120.5z" fill="#bc6fe8" data-original="#61de56" class=""/>
<path xmlns="http://www.w3.org/2000/svg" style="" d="M512,256c0-74.715-60.785-135.5-135.5-135.5S241,181.285,241,256s60.785,135.5,135.5,135.5  S512,330.715,512,256z" fill="#f2f2f2" data-original="#f2f2f2" class=""/>
<path xmlns="http://www.w3.org/2000/svg" style="" d="M376.5,391.5c74.715,0,135.5-60.785,135.5-135.5H241C241,330.715,301.785,391.5,376.5,391.5z" fill="#f2f2f2" data-original="#d9d9d9" class=""/>
<g xmlns="http://www.w3.org/2000/svg">
</g>
<g xmlns="http://www.w3.org/2000/svg">
</g>
<g xmlns="http://www.w3.org/2000/svg">
</g>
<g xmlns="http://www.w3.org/2000/svg">
</g>
<g xmlns="http://www.w3.org/2000/svg">
</g>
<g xmlns="http://www.w3.org/2000/svg">
</g>
<g xmlns="http://www.w3.org/2000/svg">
</g>
<g xmlns="http://www.w3.org/2000/svg">
</g>
<g xmlns="http://www.w3.org/2000/svg">
</g>
<g xmlns="http://www.w3.org/2000/svg">
</g>
<g xmlns="http://www.w3.org/2000/svg">
</g>
<g xmlns="http://www.w3.org/2000/svg">
</g>
<g xmlns="http://www.w3.org/2000/svg">
</g>
<g xmlns="http://www.w3.org/2000/svg">
</g>
<g xmlns="http://www.w3.org/2000/svg">
</g>
</g></svg>
